<svg width="541" height="61" fill="none" xmlns="http://www.w3.org/2000/svg"><path fill-rule="evenodd" clip-rule="evenodd" d="M269.204.228c-.115.15-7.031.554-15.369.898-15.899.656-21.562 1.03-28.556 1.885-2.327.283-8.059.78-12.738 1.104-4.679.324-10.867 1.016-13.75 1.54-2.883.524-6.286.933-7.561.907-1.277-.024-2.642.23-3.034.568-.393.338-2.522.775-4.732.971-5.143.457-9.659 1.118-16.708 2.445-3.103.584-6.593 1.214-7.756 1.402-1.164.186-2.909.556-3.878.82-.97.265-3.667.807-5.994 1.206-2.327.398-4.548 1.056-4.935 1.462-.388.407-1.499.65-2.468.54-.97-.11-2.283.15-2.919.574-.635.426-2.221.862-3.525.97-1.303.106-2.675.42-3.047.698-.372.278-2.117.623-3.878.767-1.761.145-4.47.696-6.021 1.225-7.22 2.467-9.644 3.055-10.291 2.498-.385-.33-1.147-.085-1.693.546-.546.63-1.617.87-2.38.533-1.007-.444-1.513-.062-1.845 1.393-.407 1.784-.575 1.843-1.516.533-.705-.98-1.454-1.19-2.243-.625-.652.464-1.582.648-2.067.407-.498-.25-.886.343-.892 1.358-.007 1.095-.213 1.375-.529.717-.696-1.453-2.787-1.138-17.44 2.624-4.266 1.095-8.511 2.515-9.435 3.155-.923.64-2.455 1.023-3.403.85-1.97-.36-8.666 1.68-8.671 2.64-.002.351-1.508.761-3.345.91-4.922.401-8.495 1.98-8.86 3.916-.3 1.592-.325 1.591-.402-.02-.082-1.73-1.528-2.319-2.47-1.008-.28.39-1.365.763-2.41.831-1.045.067-2.852.692-4.015 1.389-1.164.696-2.83 1.21-3.702 1.141-1.187-.093-1.586.414-1.586 2.014 0 2.076-.03 2.083-.99.255-.973-1.849-1.088-1.843-6.522.377-3.043 1.244-6.485 2.843-7.648 3.553-2.274 1.389-4.611 2.675-5.465 3.01-.29.114-.767.316-1.057.446-.29.131-.736.201-.99.154-.254-.046-.843.556-1.31 1.339-.697 1.166-.51 1.604 1.035 2.42 2.564 1.356 3.02 1.271 3.853-.719.399-.952.728-1.17.74-.49.025 1.478 2.422 1.607 4.271.23.737-.548 2.223-1.156 3.304-1.351 2.49-.451 5.983-1.675 6.9-2.419.388-.315 1.34-.7 2.116-.857.776-.157 1.886-.577 2.468-.932.581-.358 1.822-.772 2.758-.923.935-.151 1.962-.848 2.28-1.548.35-.766.585-.839.592-.182.015 1.558 3.701.483 4.77-1.391.53-.93.881-1.08.881-.377 0 1.2 2.947 1.646 3.725.564.416-.578 5.16-1.489 7.733-1.482.68.001 1.234-.34 1.234-.758 0-.419 1.465-.837 3.255-.932 1.79-.094 3.614-.484 4.054-.866.44-.382 1.752-.794 2.915-.915 2.84-.294 5.084-.84 8.461-2.057 1.551-.558 3.296-1.032 3.878-1.052 2.082-.07 8.148-1.14 10.224-1.801 1.163-.371 2.909-.787 3.878-.923.97-.137 3.19-.737 4.936-1.334 1.745-.596 4.274-1.308 5.62-1.583 1.346-.274 2.694-1.029 2.997-1.677.422-.907.685-.889 1.134.08.567 1.22 2.941.683 2.941-.665 0-.366.634-.733 1.41-.814.775-.082 1.41.252 1.41.74 0 .49.397.712.881.494.485-.216 2.621-.659 4.745-.982 2.37-.361 4.095-1.165 4.464-2.08.396-.985.881-1.18 1.425-.573 1.078 1.204 5.405.271 5.418-1.168.007-.69.235-.621.603.184.478 1.048.815.987 1.752-.316.638-.886 1.16-1.14 1.16-.562 0 1.453 3.218 1.323 4.357-.175.512-.674 2.28-1.163 3.928-1.085 1.648.078 2.996-.261 2.996-.754s.775-.625 1.723-.294c.948.33 2.137.245 2.643-.19.507-.435 1.556-.808 2.332-.829.776-.02 1.331-.587 1.235-1.262-.208-1.444 1.008-1.673 1.351-.254.276 1.142 4.849 2.052 5.876 1.17.388-.332 1.34-.631 2.115-.665.776-.032 2.105-.6 2.954-1.26 1.022-.796 1.694-.865 1.988-.203.244.55.685.791.98.538 1.133-.973 10.55-2.708 16.01-2.95 3.143-.139 6.018-.513 6.389-.831.37-.32 2.4-.689 4.509-.823 2.109-.134 4.612-.802 5.561-1.487 1.258-.907 1.978-.954 2.654-.174.592.684 2.138.811 4.268.35 1.837-.397 4.45-.618 5.807-.493 1.357.127 2.944.182 3.525.123.582-.06 3.65-.303 6.819-.543 3.168-.24 6.401-.913 7.184-1.495.783-.584 1.589-.69 1.79-.238.415.934 2.981.858 3.676-.11.253-.35 1.059-.193 1.792.353.732.546 1.583.775 1.891.51.736-.632 24.476-1.762 37.65-1.791 5.76-.013 10.218-.406 10.007-.882-.21-.473-.072-.859.306-.859s.822.552.985 1.226c.234.97.515.975 1.344.023.58-.665 1.34-.833 1.702-.374 1.045 1.325 5.141 2.094 5.604 1.051.233-.524 1.197-.682 2.143-.352 1.188.415 1.723.188 1.73-.732.008-.925.169-.992.529-.22.306.66 2.532 1.107 5.454 1.097 2.714-.01 6.998.01 9.518.04 2.521.032 4.901.037 5.289.01 2.431-.166 16.83 1.209 17.138 1.637.206.287.918-.163 1.582-.998 1.089-1.372 1.314-1.372 2.299-.002 1.567 2.18 3.053 2.018 1.819-.2-.909-1.631-.885-1.631.487-.013.939 1.108 1.683 1.37 2.131.745.449-.623 1.541-.596 3.128.077 1.342.568 6.089 1.215 10.549 1.438 4.459.222 8.108.452 8.108.51 0 .278 4.167.84 10.224 1.38 3.684.326 9.078.845 11.987 1.15 2.908.306 7.033.697 9.166.87 7.734.628 12.671 1.303 14.077 1.924.863.382 1.435.193 1.435-.472 0-.607.353-.8.784-.43.431.37 2.647.807 4.923.969 2.276.163 4.459.572 4.852.91.394.337 3.165.614 6.158.614 3.027 0 5.872.494 6.409 1.114.856.989 5.638 1.657 13.716 1.92 1.454.047 2.644.489 2.644.981s.243.687.54.43c.297-.254 2.039-.074 3.872.402 1.831.476 4.523.955 5.982 1.064 1.457.11 3.005.572 3.44 1.028.436.456 2.974 1.01 5.641 1.233 2.668.223 5.406.706 6.085 1.072.678.365 1.689.421 2.245.124.557-.297 1.132-.043 1.277.565.146.607 1.884 1.158 3.862 1.224 1.979.067 4.051.643 4.605 1.284.555.64 1.147.97 1.316.736.169-.235 1.49-.057 2.935.396 1.519.477 2.794.45 3.022-.061.217-.488.825-.287 1.353.447.526.733 2.499 1.587 4.383 1.898 4.206.692 5.395 1.043 5.85 1.728.194.292 2.746 1.301 5.671 2.243 2.926.941 6.178 2.331 7.228 3.088 1.049.758 1.908 1.114 1.908.794 0-.322.555.078 1.234.89 1.145 1.367 3.426 2.96 4.524 3.158.258.046.708.415.999.82.291.404 1.076.736 1.746.736.669 0 1.4.662 1.623 1.47.223.81.71 1.472 1.081 1.472.89 0 1.327-3.163.61-4.414-3.14-5.479-6.834-9.317-8.969-9.317-.791 0-1.438-.432-1.438-.962 0-.528-.839-1.255-1.865-1.613-1.025-.358-2.453-1.47-3.173-2.47-.719-1.001-2.038-1.82-2.93-1.82-.892 0-1.923-.414-2.291-.92-.368-.506-1.463-1.08-2.433-1.277-.969-.196-2.808-1.128-4.087-2.071-1.279-.943-3.735-1.803-5.46-1.91-1.724-.109-3.137-.5-3.14-.872-.003-.37-.56-.671-1.239-.67-1.627.007-4.227-.707-7.051-1.934-1.26-.549-2.291-.792-2.291-.54 0 .25-.607.004-1.349-.548-.742-.553-2.884-1.08-4.759-1.174-1.876-.093-3.887-.502-4.469-.907-2.114-1.475-9.651-3.162-15.267-3.417-3.162-.144-6.401-.748-7.199-1.34-.798-.595-1.701-1-2.007-.902-.307.098-1.668-.144-3.025-.539-4.031-1.17-6.4-1.57-12.217-2.064-3.035-.257-5.785-.697-6.112-.979-.328-.281-2.287-.711-4.354-.955a468.033 468.033 0 01-8.342-1.087c-2.52-.353-6.169-.792-8.108-.977a96.164 96.164 0 01-7.051-.99c-1.939-.361-6.064-.847-9.167-1.079-6.095-.456-9.441-.78-16.993-1.65-13.448-1.545-19.216-1.747-20.596-.72-1.112.828-1.679.752-2.457-.331-.557-.774-2.244-1.384-3.751-1.356-1.507.027-6.229-.25-10.495-.615C333.389.11 283.182-.16 282.247.89c-.469.527-1.255.61-1.748.187-.83-.713-10.824-1.466-11.295-.85zm150.811 17.328c-.225.782-.392.55-.426-.593-.03-1.034.136-1.612.37-1.287.234.326.26 1.172.056 1.88zM153.488 21.48c-.225.782-.392.55-.426-.593-.03-1.034.136-1.612.37-1.287.234.326.26 1.172.056 1.88zm-22.809 3.32c-.538 1.947-.726 1.768-1.114-1.06-.267-1.94-.144-2.236.581-1.4.505.583.745 1.69.533 2.46zm-10.812 3.361c0 .54-.14.981-.311.981-.172 0-.507-.441-.747-.98-.24-.54-.099-.982.311-.982.41 0 .747.442.747.981zM5.081 56.71c-1.307.68-1.484 1.19-.919 2.658.515 1.339 1.264 1.7 2.852 1.375 1.183-.241 2.152-.817 2.152-1.278 0-.461-.45-.598-1.001-.304-.622.331-1.09-.192-1.234-1.38-.189-1.556-.535-1.757-1.85-1.071zM0 58.282c0 .695.336 1.262.747 1.262.41 0 .536.474.278 1.054-.265.597.145.521.946-.175.777-.676 1.261-1.782 1.074-2.458-.44-1.6-3.045-1.329-3.045.317z" fill="#C5C5C5"></path></svg>